<svg xmlns="http://www.w3.org/2000/svg" version="1.1" xmlns:xlink="http://www.w3.org/1999/xlink" xmlns:svgjs="http://svgjs.dev/svgjs" width="1500" height="378" viewBox="0 0 1500 378"><g transform="matrix(1,0,0,1,-0.9090909090909918,0.22139498907955613)"><svg viewBox="0 0 396 100" data-background-color="#16a34a" preserveAspectRatio="xMidYMid meet" height="378" width="1500" xmlns="http://www.w3.org/2000/svg" xmlns:xlink="http://www.w3.org/1999/xlink"><g id="tight-bounds" transform="matrix(1,0,0,1,0.2400000000000091,-0.058570102931099655)"><svg viewBox="0 0 395.52 100.11714020586219" height="100.11714020586219" width="395.52"><g><svg viewBox="0 0 562.1117680561359 142.2861617461601" height="100.11714020586219" width="395.52"><g transform="matrix(1,0,0,1,0,19.664730024252236)"><svg viewBox="0 0 395.52000000000004 102.95670169765563" height="102.95670169765563" width="395.52000000000004"><g id="textblocktransform"><svg viewBox="0 0 395.52000000000004 102.95670169765563" height="102.95670169765563" width="395.52000000000004" id="textblock"><g><svg viewBox="0 0 395.52000000000004 102.95670169765563" height="102.95670169765563" width="395.52000000000004"><g transform="matrix(1,0,0,1,0,0)"><svg width="395.52000000000004" viewBox="0.15 -35.85 185.53 48.300000000000004" height="102.95670169765563" data-palette-color="#ffffff"><path d="M10.7-27.45L10.7-6.25Q10.7-2.75 10.38-0.05 10.05 2.65 9.05 4.83 8.05 7 6.13 8.85 4.2 10.7 1 12.45L1 12.45Q0.65 12.25 0.45 11.9 0.25 11.55 0.15 11.15L0.15 11.15Q2.05 9.55 3.35 7.8 4.65 6.05 5.33 3.75 6 1.45 6-1.7L6-1.7 6-27.45Q6-29.15 5.7-30.05 5.4-30.95 4.65-31.35 3.9-31.75 2.55-31.8L2.55-31.8Q2.4-32.2 2.35-32.75 2.3-33.3 2.3-33.95L2.3-33.95Q3.05-33.9 4.03-33.88 5-33.85 6.13-33.83 7.25-33.8 8.35-33.8L8.35-33.8Q10-33.8 11.75-33.85 13.5-33.9 14.4-33.95L14.4-33.95Q14.4-33.3 14.35-32.75 14.3-32.2 14.15-31.8L14.15-31.8Q12.9-31.75 12.13-31.35 11.35-30.95 11.03-30.05 10.7-29.15 10.7-27.45L10.7-27.45ZM29.75 0.45L29.75 0.45Q26.35 0.45 23.8-1.03 21.25-2.5 19.85-5.18 18.45-7.85 18.45-11.45L18.45-11.45Q18.45-14.85 19.9-17.55 21.35-20.25 23.9-21.8 26.45-23.35 29.75-23.35L29.75-23.35Q33.3-23.35 35.82-21.85 38.35-20.35 39.7-17.68 41.05-15 41.05-11.45L41.05-11.45Q41.05-8.05 39.62-5.35 38.2-2.65 35.67-1.1 33.15 0.45 29.75 0.45ZM30.15-1.95L30.15-1.95Q33.15-1.95 34.6-4.42 36.05-6.9 36.05-10.85L36.05-10.85Q36.05-13.95 35.12-16.23 34.2-18.5 32.65-19.73 31.1-20.95 29.25-20.95L29.25-20.95Q26.35-20.95 24.92-18.6 23.5-16.25 23.5-12.5L23.5-12.5Q23.5-9.15 24.32-6.78 25.15-4.4 26.65-3.18 28.15-1.95 30.15-1.95ZM51.8-2.7L51.09-4.3Q52.09-3.25 53.27-2.55 54.45-1.85 56.2-1.85L56.2-1.85Q57.25-1.85 58.47-2.27 59.7-2.7 60.84-3.75 62-4.8 62.72-6.7 63.45-8.6 63.45-11.6L63.45-11.6Q63.45-14.8 62.5-16.68 61.55-18.55 60.25-19.38 58.95-20.2 57.84-20.2L57.84-20.2Q56.4-20.2 55-19.28 53.59-18.35 52.7-16.25 51.8-14.15 51.8-10.65L51.8-10.65 51.8-2.7ZM55.95 0.45L55.95 0.45Q53.7 0.45 51.84 0 50-0.45 48.59-1.23 47.2-2 46.2-2.95L46.2-2.95Q46.75-3.65 47.02-5 47.3-6.35 47.3-9.3L47.3-9.3 47.3-28.75Q47.3-29.95 47.07-30.73 46.84-31.5 46.05-31.9 45.25-32.3 43.55-32.3L43.55-32.3Q43.55-32.85 43.65-33.3 43.75-33.75 44-34.15L44-34.15Q44.75-34.15 46.12-34.4 47.5-34.65 48.8-35.05 50.09-35.45 50.7-35.85L50.7-35.85Q51.15-35.7 51.47-35.25 51.8-34.8 51.8-33.85L51.8-33.85 51.8-20.8Q51.8-19.9 51.7-19.28 51.59-18.65 51.5-18.1L51.5-18.1 51.3-13.65 50.34-15.95Q51-17.55 51.47-18.4 51.95-19.25 52.2-19.65L52.2-19.65Q52.65-20.4 53.62-21.28 54.59-22.15 56-22.75 57.4-23.35 59.05-23.35L59.05-23.35Q62-23.35 64.07-22.18 66.15-21 67.27-18.55 68.4-16.1 68.4-12.25L68.4-12.25Q68.4-8.75 66.84-5.88 65.3-3 62.5-1.28 59.7 0.45 55.95 0.45ZM73.19 0.15L73.19 0.15Q73.19-0.55 73.24-1.07 73.29-1.6 73.44-2L73.44-2Q74.79-2.1 75.54-2.48 76.29-2.85 76.59-3.78 76.89-4.7 76.89-6.35L76.89-6.35 76.89-27.45Q76.89-29.15 76.59-30.05 76.29-30.95 75.54-31.35 74.79-31.75 73.44-31.8L73.44-31.8Q73.29-32.2 73.24-32.75 73.19-33.3 73.19-33.95L73.19-33.95Q75.14-33.85 76.97-33.83 78.79-33.8 79.99-33.8L79.99-33.8Q80.69-33.8 81.97-33.83 83.24-33.85 84.49-33.88 85.74-33.9 86.34-33.9L86.34-33.9Q90.49-33.9 92.99-32.55 95.49-31.2 96.59-29 97.69-26.8 97.69-24.2L97.69-24.2Q97.69-21.35 96.42-18.7 95.14-16.05 92.64-14.35 90.14-12.65 86.34-12.65L86.34-12.65Q84.24-12.65 82.84-13.2L82.84-13.2Q82.74-13.75 82.74-14.25 82.74-14.75 82.89-15.25L82.89-15.25Q83.54-15.1 84.19-15.03 84.84-14.95 85.54-14.95L85.54-14.95Q87.39-14.95 88.99-15.6 90.59-16.25 91.59-17.93 92.59-19.6 92.59-22.75L92.59-22.75Q92.59-26.75 90.62-29.23 88.64-31.7 84.14-31.7L84.14-31.7Q83.59-31.7 82.87-31.63 82.14-31.55 80.84-31.25L80.84-31.25 81.59-32 81.59-7.35Q81.59-5.2 82.04-4.08 82.49-2.95 83.49-2.53 84.49-2.1 86.04-2L86.04-2Q86.19-1.6 86.24-1.07 86.29-0.55 86.29 0.15L86.29 0.15Q85.54 0.1 84.52 0.08 83.49 0.05 82.34 0.03 81.19 0 79.99 0L79.99 0Q78.84 0 77.49 0.03 76.14 0.05 74.99 0.08 73.84 0.1 73.19 0.15ZM110.69 0.2L110.69 0.2Q107.34 0.2 105.44-1.75 103.54-3.7 103.54-8.7L103.54-8.7 103.54-16.25Q103.54-18 103.04-18.88 102.54-19.75 100.24-19.8L100.24-19.8Q100.24-20.35 100.32-20.78 100.39-21.2 100.59-21.65L100.59-21.65Q102.14-21.75 103.97-22.25 105.79-22.75 106.94-23.35L106.94-23.35Q107.39-23.2 107.72-22.73 108.04-22.25 108.04-21.15L108.04-21.15 108.04-9.8Q108.04-6.45 108.97-4.65 109.89-2.85 112.19-2.85L112.19-2.85Q114.69-2.85 116.37-4.95 118.04-7.05 118.04-11.4L118.04-11.4 118.04-16.5Q118.04-18.25 117.42-19.13 116.79-20 114.29-20.05L114.29-20.05Q114.29-20.6 114.34-21.03 114.39-21.45 114.64-21.9L114.64-21.9Q116.59-22 118.47-22.43 120.34-22.85 121.44-23.35L121.44-23.35Q121.89-23.2 122.22-22.73 122.54-22.25 122.54-21.15L122.54-21.15 122.54-6.65 118.64-4.8Q118.39-4.15 117.94-3.53 117.49-2.9 116.94-2.35L116.94-2.35Q115.64-1.05 114.19-0.43 112.74 0.2 110.69 0.2ZM119.64 0.45L119.64 0.45Q119.14 0.2 118.77-0.28 118.39-0.75 118.39-2.45L118.39-2.45Q118.39-3 118.47-4 118.54-5 118.89-6.8L118.89-6.8 122.54-6.8Q122.54-5.65 122.74-4.88 122.94-4.1 123.62-3.75 124.29-3.4 125.64-3.4L125.64-3.4Q125.64-2.9 125.59-2.27 125.54-1.65 125.34-1.1L125.34-1.1Q124.09-1.05 122.44-0.63 120.79-0.2 119.64 0.45ZM129.44 0.15L129.44 0.15Q129.44-0.35 129.49-0.93 129.54-1.5 129.69-2L129.69-2Q131.69-2 132.41-2.93 133.14-3.85 133.14-6.35L133.14-6.35 133.14-28.75Q133.14-29.95 132.91-30.73 132.69-31.5 131.89-31.9 131.09-32.3 129.39-32.3L129.39-32.3Q129.39-32.85 129.49-33.3 129.59-33.75 129.84-34.15L129.84-34.15Q130.59-34.15 131.96-34.4 133.34-34.65 134.64-35.05 135.94-35.45 136.54-35.85L136.54-35.85Q136.99-35.7 137.31-35.25 137.64-34.8 137.64-33.85L137.64-33.85 137.64-6.35Q137.64-3.85 138.31-2.93 138.99-2 140.59-2L140.59-2Q140.74-1.5 140.79-0.85 140.84-0.2 140.84 0.15L140.84 0.15Q139.99 0.1 139.04 0.08 138.09 0.05 137.11 0.03 136.14 0 135.19 0L135.19 0Q134.24 0 133.21 0.03 132.19 0.05 131.24 0.08 130.29 0.1 129.44 0.15ZM160.34-21.6L160.34-21.6Q160.28-20.4 160.26-19.05 160.24-17.7 160.44-16.4L160.44-16.4Q159.94-16.1 159.28-15.95 158.64-15.8 157.94-15.8L157.94-15.8Q157.84-17.2 157.11-18.45 156.39-19.7 155.19-20.5 153.99-21.3 152.34-21.3L152.34-21.3Q150.78-21.3 149.86-20.55 148.94-19.8 148.94-18.55L148.94-18.55Q148.94-17.7 149.31-17.05 149.69-16.4 150.96-15.68 152.24-14.95 154.89-13.9L154.89-13.9Q157.59-12.9 159.14-11.9 160.69-10.9 161.34-9.65 161.99-8.4 161.99-6.6L161.99-6.6Q161.99-4.5 160.78-2.9 159.59-1.3 157.51-0.43 155.44 0.45 152.84 0.45L152.84 0.45Q149.84 0.45 148.06-0.03 146.28-0.5 144.59-1.4L144.59-1.4Q144.69-2.2 144.71-3.35 144.74-4.5 144.74-5.65 144.74-6.8 144.64-7.6L144.64-7.6Q145.03-7.9 145.76-8.03 146.49-8.15 147.24-8.15L147.24-8.15Q147.64-5 149.19-3.45 150.74-1.9 153.34-1.9L153.34-1.9Q155.39-1.9 156.51-2.8 157.64-3.7 157.64-5.1L157.64-5.1Q157.64-6 157.21-6.65 156.78-7.3 155.64-7.95 154.49-8.6 152.24-9.5L152.24-9.5Q149.53-10.6 147.91-11.55 146.28-12.5 145.56-13.8 144.84-15.1 144.84-17.1L144.84-17.1Q144.84-18.7 145.64-19.88 146.44-21.05 147.71-21.83 148.99-22.6 150.44-22.98 151.89-23.35 153.14-23.35L153.14-23.35Q155.39-23.35 157.09-22.9 158.78-22.45 160.34-21.6ZM176.58 0.45L176.58 0.45Q173.03 0.45 170.68-1.15 168.33-2.75 167.16-5.48 165.98-8.2 165.98-11.45L165.98-11.45Q165.98-14.65 167.23-17.35 168.48-20.05 170.81-21.7 173.13-23.35 176.33-23.35L176.33-23.35Q179.58-23.35 181.56-21.95 183.53-20.55 184.51-18.2 185.48-15.85 185.68-13L185.68-13Q185.48-12 184.93-11.3L184.93-11.3Q184.08-11.3 182.38-11.3 180.68-11.3 178.53-11.28 176.38-11.25 174.13-11.18 171.88-11.1 169.88-11L169.88-11 169.88-13.55 180.48-13.55Q180.48-16.85 179.28-18.9 178.08-20.95 175.88-20.95L175.88-20.95Q174.68-20.95 173.53-20.23 172.38-19.5 171.63-17.68 170.88-15.85 170.88-12.5L170.88-12.5Q170.88-10.05 171.51-7.73 172.13-5.4 173.71-3.88 175.28-2.35 178.18-2.35L178.18-2.35Q179.83-2.35 181.43-3.1 183.03-3.85 184.28-5.25L184.28-5.25Q184.68-5.05 185.06-4.58 185.43-4.1 185.48-3.7L185.48-3.7Q183.78-1.45 181.56-0.5 179.33 0.45 176.58 0.45Z" opacity="1" transform="matrix(1,0,0,1,0,0)" fill="#ffffff" class="wordmark-text-0" data-fill-palette-color="primary" id="text-0"></path></svg></g></svg></g></svg></g></svg></g><g transform="matrix(1,0,0,1,419.8256063099758,0)"><svg viewBox="0 0 142.2861617461601 142.2861617461601" height="142.2861617461601" width="142.2861617461601"><g data-palette-color="#ffffff"><rect width="38.89155087728376" height="142.2861617461601" fill="#ffffff" stroke="transparent" data-fill-palette-color="accent" x="0" fill-opacity="1"></rect><rect width="38.89155087728376" height="142.2861617461601" fill="#ffffff" stroke="transparent" data-fill-palette-color="accent" x="47.42872058205337" fill-opacity="0.75"></rect><rect width="38.89155087728376" height="142.2861617461601" fill="#ffffff" stroke="transparent" data-fill-palette-color="accent" x="94.85744116410675" fill-opacity="0.5"></rect></g></svg></g></svg></g><defs></defs></svg><rect width="395.52" height="100.11714020586219" fill="none" stroke="none" visibility="hidden"></rect></g></svg></g></svg>